<svg version="1.1" id="Layer_1" xmlns="http://www.w3.org/2000/svg" xmlns:xlink="http://www.w3.org/1999/xlink" x="0px" y="0px"
	 width="100%" viewBox="0 0 800 800" enable-background="new 0 0 800 800" xml:space="preserve">
<path fill="#FFFFFF" opacity="1.000000" stroke="none" 
	d="
M436.000000,801.000000 
	C292.166656,801.000000 148.833313,800.982910 5.500073,801.094055 
	C1.750591,801.096985 0.905242,800.249146 0.906701,796.499939 
	C1.009313,532.833313 1.009313,269.166656 0.906701,5.500036 
	C0.905242,1.750842 1.750842,0.905244 5.500036,0.906702 
	C269.166656,1.009302 532.833313,1.009302 796.499939,0.906703 
	C800.249146,0.905244 801.094788,1.750842 801.093323,5.500036 
	C800.990723,269.166656 800.990662,532.833313 801.093323,796.499939 
	C801.094788,800.249146 800.249512,801.098022 796.499939,801.094421 
	C676.500000,800.979675 556.500000,801.000000 436.000000,801.000000 
z"/>
<path fill="#144A7A" opacity="1.000000" stroke="none" 
	d="
M372.097290,607.891724 
	C383.428925,608.516907 393.305298,605.203857 402.540436,599.914978 
	C405.862762,598.012268 406.957489,598.861084 408.069458,602.096069 
	C409.744049,606.967896 411.629578,611.797607 413.859161,616.436829 
	C415.185516,619.196655 414.494537,620.497192 412.158508,622.060425 
	C403.291107,627.994568 393.782562,632.012817 383.063477,633.103210 
	C369.632446,634.469421 356.398010,633.722229 343.621399,629.222473 
	C322.849487,621.906860 311.644012,606.784180 308.852722,585.210205 
	C307.157684,572.109009 308.171997,559.249023 313.502075,547.006348 
	C321.466766,528.712158 335.862762,518.899597 355.309326,516.376343 
	C364.601318,515.170593 373.963959,515.376404 382.943634,518.681641 
	C399.364380,524.725769 408.523712,537.078308 412.971680,553.486389 
	C415.305695,562.096375 415.544617,570.893066 415.663696,579.739441 
	C415.708496,583.068665 414.693848,583.937561 411.420654,583.916870 
	C389.434784,583.777466 367.447571,583.838867 345.460815,583.847046 
	C339.731049,583.849121 339.731049,583.868347 341.679443,589.355469 
	C346.102142,601.810669 355.298950,607.501831 372.097290,607.891724 
z"/>
<path fill="#14497A" opacity="1.000000" stroke="none" 
	d="
M166.211899,583.841919 
	C162.362122,583.405151 161.249573,584.391479 162.455399,587.971741 
	C165.739838,597.723572 171.864624,604.302368 182.107620,606.594849 
	C196.939285,609.914490 210.909607,607.468323 223.977936,599.927307 
	C226.822662,598.285828 228.121597,598.428833 229.249435,601.688110 
	C230.988998,606.715027 232.905151,611.713623 235.214920,616.498047 
	C236.593933,619.354553 235.614182,620.571045 233.407898,622.119690 
	C222.711472,629.627808 210.790833,633.310608 197.825424,633.660950 
	C186.779892,633.959351 175.852036,633.037048 165.316833,629.378540 
	C147.607986,623.228943 136.109818,611.190552 131.700439,592.908325 
	C127.849190,576.940186 128.525436,561.080688 135.337326,545.963257 
	C143.355087,528.169678 157.775650,518.774109 176.816101,516.356262 
	C185.950363,515.196411 195.150055,515.398621 203.977402,518.557495 
	C218.653259,523.809204 227.906647,534.325623 232.917618,548.854065 
	C236.278351,558.597961 236.916611,568.682739 237.045990,578.894897 
	C237.094742,582.743408 236.211197,583.982605 232.144867,583.943176 
	C210.326385,583.731445 188.504791,583.842712 166.211899,583.841919 
z"/>
<path fill="#154A7A" opacity="1.000000" stroke="none" 
	d="
M601.792419,561.446899 
	C605.089355,561.161499 604.073181,559.134155 603.856873,557.672058 
	C602.668579,549.641113 597.053833,544.308899 588.583313,543.788818 
	C577.935974,543.135132 567.711304,545.588623 557.872925,549.413879 
	C554.656982,550.664307 553.289612,550.411377 552.325500,546.962463 
	C550.625000,540.879272 548.635498,534.870117 546.559753,528.902100 
	C545.829163,526.801575 545.851685,525.479431 548.125854,524.576294 
	C568.710815,516.401184 589.579590,511.088409 610.892883,521.509949 
	C626.380798,529.083008 634.819946,541.543457 634.666260,559.359253 
	C634.473816,581.675659 634.524048,603.995911 634.714966,626.312378 
	C634.747742,630.142273 633.649048,631.201843 629.939270,630.981140 
	C624.628418,630.665100 619.277710,630.735474 613.957642,630.961975 
	C610.745483,631.098755 609.321594,630.211426 609.758362,626.796448 
	C610.025330,624.709167 609.807739,622.559875 609.807739,620.129700 
	C607.512085,620.467896 606.544983,622.180542 605.309692,623.315186 
	C590.621460,636.807190 571.429138,636.143799 556.854736,628.599060 
	C543.052307,621.453918 539.154785,608.617310 540.074707,593.940674 
	C540.988770,579.357483 548.904602,569.962158 562.234863,564.813293 
	C568.681274,562.323303 575.464478,561.535889 582.331238,561.473083 
	C588.659668,561.415161 594.989075,561.458069 601.792419,561.446899 
z"/>
<path fill="#C91625" opacity="1.000000" stroke="none" 
	d="
M568.574097,345.681335 
	C556.982910,393.657196 519.820129,412.562378 483.513947,410.077545 
	C474.610016,409.468201 466.286499,406.614624 458.501801,402.152008 
	C439.780426,391.419861 424.650909,377.039459 413.591370,358.081970 
	C413.668732,354.313019 416.337921,353.829834 418.800690,353.667633 
	C428.749329,353.012543 438.681702,352.138672 448.629150,351.489990 
	C468.022766,350.225372 487.427460,349.166473 506.817871,347.807251 
	C525.707092,346.483185 544.558960,344.419495 563.518799,344.138824 
	C565.220642,344.113647 566.845154,344.231293 568.574097,345.681335 
z"/>
<path fill="#144A7A" opacity="1.000000" stroke="none" 
	d="
M520.479126,609.476196 
	C521.410217,611.848572 522.181885,613.870178 522.991760,615.876404 
	C525.724182,622.645142 525.865479,622.943298 519.369202,625.888428 
	C498.324493,635.429077 476.893921,637.302368 455.734314,626.718201 
	C436.771667,617.233093 428.658630,600.492310 427.173004,580.057861 
	C426.503143,570.844177 427.323578,561.706543 430.336731,552.931396 
	C439.542206,526.122192 467.224640,511.039307 496.534546,516.793884 
	C505.550537,518.564026 514.315613,521.097534 522.396301,525.678589 
	C524.634583,526.947510 525.509949,528.002808 524.249756,530.711243 
	C522.078491,535.377502 520.299011,540.242493 518.617981,545.114746 
	C517.527405,548.275696 516.193970,549.113037 512.903198,547.574219 
	C506.554382,544.605530 499.845215,542.601807 492.825104,541.818970 
	C474.028168,539.722839 460.989410,550.171814 458.304260,569.578308 
	C457.447052,575.773621 457.972717,581.921326 459.960785,587.842773 
	C465.004059,602.864197 477.548431,610.033569 494.256714,607.534119 
	C500.378479,606.618408 506.421875,605.113403 511.905914,602.297424 
	C516.073730,600.157410 517.909363,601.247131 518.938354,605.380798 
	C519.257629,606.663208 519.862915,607.874512 520.479126,609.476196 
z"/>
<path fill="#144A7A" opacity="1.000000" stroke="none" 
	d="
M111.524323,605.619324 
	C114.278732,611.844177 116.651581,617.890198 119.237556,623.843567 
	C120.092636,625.812195 120.316216,627.017029 118.120209,628.284668 
	C99.749809,638.888428 62.970230,634.848083 55.020607,607.264954 
	C53.722546,602.760986 53.073914,598.148743 53.072536,593.455872 
	C53.063049,561.124695 53.099552,528.793396 52.983707,496.462585 
	C52.972984,493.469788 53.871761,492.075806 56.714825,491.058838 
	C64.235916,488.368561 71.657532,485.386536 79.042137,482.335236 
	C81.938316,481.138519 83.105270,481.199738 83.006363,484.893463 
	C82.770012,493.719879 83.074089,502.560516 82.854729,511.387817 
	C82.769981,514.798035 83.641891,516.065002 87.251030,515.927063 
	C94.406784,515.653564 101.582672,515.950623 108.745346,515.791687 
	C111.496246,515.730652 112.617516,516.457153 112.501488,519.400330 
	C112.291573,524.725098 112.297951,530.069275 112.496925,535.394836 
	C112.605339,538.296448 111.553940,539.103577 108.761993,539.041382 
	C101.432770,538.877930 94.093376,539.128662 86.766617,538.917175 
	C83.630035,538.826660 82.837700,539.903198 82.865425,542.914062 
	C83.005020,558.078491 82.909248,573.244873 82.957268,588.410400 
	C82.970619,592.622864 83.780281,596.687012 85.921761,600.399597 
	C89.904823,607.304749 97.458130,609.699158 106.494232,606.907349 
	C108.075302,606.418884 109.648819,605.906006 111.524323,605.619324 
z"/>
<path fill="#7D1210" opacity="1.000000" stroke="none" 
	d="
M332.689362,341.749451 
	C343.759583,370.218079 360.298309,394.345581 383.572083,413.722046 
	C403.595367,430.392334 426.235352,442.488495 450.460297,451.763306 
	C456.042053,453.900330 461.747986,455.712952 467.703857,457.882477 
	C466.481079,461.480682 463.819305,459.743469 461.664276,459.304596 
	C443.276520,455.560059 425.094482,450.975433 407.107239,445.625000 
	C405.194855,445.056122 403.271362,444.547211 400.918732,444.111206 
	C383.056976,437.783478 365.455231,431.858978 348.586365,423.118469 
	C339.303406,419.124146 332.359344,412.230743 323.903076,406.991516 
	C315.464478,400.800659 308.726105,393.192688 300.509277,386.737793 
	C288.029572,373.184540 276.266174,359.522308 267.499817,343.592773 
	C266.503296,341.781952 264.094910,339.961639 266.822205,337.338745 
	C283.776733,340.987854 300.830658,340.045959 317.548035,342.375397 
	C322.537109,343.070587 327.397034,341.866180 332.689362,341.749451 
z"/>
<path fill="#154A7A" opacity="1.000000" stroke="none" 
	d="
M721.025757,474.197754 
	C720.520325,470.398529 721.611389,468.985809 725.289978,469.125397 
	C732.605042,469.403015 739.940308,469.309235 747.262695,469.155731 
	C750.056458,469.097168 750.971313,469.945862 750.966919,472.826904 
	C750.888306,524.272766 750.879517,575.718872 750.981628,627.164734 
	C750.988159,630.454468 749.742493,631.016846 746.884644,630.953857 
	C739.728943,630.795959 732.560974,630.720642 725.411133,630.978821 
	C721.897888,631.105713 720.930603,630.025024 720.947388,626.514771 
	C721.085144,597.712341 721.025818,568.908875 721.026001,540.105774 
	C721.026184,518.295288 721.025940,496.484833 721.025757,474.197754 
z"/>
<path fill="#BC1521" opacity="1.000000" stroke="none" 
	d="
M569.089722,345.634735 
	C561.016968,345.783752 553.114868,345.544800 545.251160,346.751526 
	C540.173523,347.530701 535.037415,347.142944 529.895386,347.773926 
	C519.237671,349.081696 508.450592,349.347076 497.713959,349.995453 
	C480.365509,351.043152 463.040894,352.416534 445.666748,353.145294 
	C436.765900,353.518646 427.893158,354.886108 418.949341,354.992157 
	C417.022308,355.015015 415.350250,355.523987 413.785980,357.370361 
	C408.453918,349.378967 404.709808,340.479553 403.005371,330.398804 
	C408.252045,326.034149 414.592834,327.017822 420.344574,326.713959 
	C444.220276,325.452454 468.101501,324.212769 491.925934,322.279572 
	C512.283630,320.627716 532.679321,319.532166 553.027039,317.743317 
	C559.763367,317.151123 566.617737,316.678436 573.732849,318.556274 
	C574.201172,319.155060 574.291626,319.460846 574.353455,320.244080 
	C573.754150,328.182709 572.753296,335.541321 569.555847,342.437164 
	C569.177734,343.252655 569.343811,344.320465 569.089722,345.634735 
z"/>
<path fill="#154A7A" opacity="1.000000" stroke="none" 
	d="
M661.196167,522.000000 
	C661.195312,513.171997 661.314148,504.841339 661.129883,496.517395 
	C661.063538,493.518860 661.872681,492.402618 665.009521,492.490784 
	C672.165955,492.691864 679.342468,492.786743 686.489746,492.461914 
	C690.370178,492.285553 691.126404,493.613007 691.105774,497.252563 
	C690.949707,524.734070 691.019775,552.216858 691.019653,579.699280 
	C691.019592,595.189392 690.906738,610.680908 691.105103,626.168457 
	C691.151367,629.785706 690.409973,631.186401 686.491028,630.994263 
	C679.678467,630.660400 672.823425,630.635315 666.014038,631.000427 
	C661.888245,631.221619 661.096130,629.760437 661.112000,625.933472 
	C661.255066,591.456116 661.195923,556.977966 661.196167,522.000000 
z"/>
<path fill="#124778" opacity="1.000000" stroke="none" 
	d="
M287.377960,523.000122 
	C287.378265,557.658813 287.313660,591.817749 287.467407,625.975708 
	C287.485077,629.895935 286.490662,631.177612 282.498169,630.979614 
	C275.849396,630.650024 269.159607,630.640503 262.512085,630.982300 
	C258.462799,631.190491 257.574432,629.810730 257.588959,625.944946 
	C257.731842,587.954346 257.675873,549.963074 257.675934,511.971954 
	C257.675934,506.639862 257.797638,501.303619 257.619873,495.977417 
	C257.531677,493.333893 258.433472,492.522766 261.036407,492.569946 
	C268.698792,492.708893 276.367065,492.712860 284.029175,492.566956 
	C286.672943,492.516632 287.465851,493.411957 287.427490,496.007050 
	C287.296936,504.836395 287.377777,513.668884 287.377960,523.000122 
z"/>
<path fill="#C91625" opacity="1.000000" stroke="none" 
	d="
M253.017776,205.330902 
	C263.768951,185.501663 278.619934,169.492538 296.230164,156.035370 
	C322.791779,135.737839 352.788422,124.038216 386.540466,121.046791 
	C386.832031,123.426529 384.756866,123.142006 383.396088,123.658127 
	C379.912750,124.979317 376.373932,126.148598 373.079224,128.678436 
	C362.295898,133.025650 354.372925,140.533432 346.602478,148.847717 
	C333.268555,163.746796 324.926666,180.826431 320.299469,199.795898 
	C319.516022,203.007675 318.697418,206.220306 318.194305,209.499237 
	C317.937927,211.170074 317.462769,212.754135 315.272156,213.542252 
	C309.789948,211.139267 304.237732,210.747314 298.830261,210.646057 
	C286.364227,210.412613 274.006592,208.684097 261.554504,208.380249 
	C258.583984,208.307770 255.546707,208.007843 253.017776,205.330902 
z"/>
<path fill="#B3161F" opacity="1.000000" stroke="none" 
	d="
M574.187622,318.767212 
	C552.668091,318.114868 531.561768,321.176300 510.364563,322.240479 
	C492.531403,323.135773 474.718719,324.893860 456.883270,326.132843 
	C444.637177,326.983551 432.368164,327.121552 420.138916,328.047882 
	C414.708710,328.459229 409.313416,329.331940 403.478821,329.996826 
	C400.993683,322.287201 402.415680,315.112152 406.667084,308.108307 
	C420.456421,306.012085 434.106049,305.766724 447.665131,304.460266 
	C466.357117,302.659271 485.133545,302.109650 503.860992,300.905762 
	C521.263367,299.786987 538.642273,298.207489 556.070251,297.451324 
	C562.528870,297.171112 568.932678,295.789062 575.821167,296.750000 
	C576.900757,298.766754 576.278931,300.533173 576.141968,302.657227 
	C575.957397,304.453156 576.035095,305.886444 575.868774,307.618805 
	C575.626343,310.374390 575.427734,312.826233 575.087402,315.656067 
	C575.015442,316.920898 574.714600,317.729248 574.187622,318.767212 
z"/>
<path fill="#C91625" opacity="1.000000" stroke="none" 
	d="
M266.037903,337.624512 
	C271.190887,348.982971 278.249420,358.757324 285.794647,368.169617 
	C290.546112,374.096771 295.742432,379.667297 300.895813,385.695374 
	C299.489838,387.510071 297.630890,387.091553 295.870422,386.640106 
	C280.858490,382.790588 265.718750,379.514404 250.534821,376.431366 
	C249.713425,376.264618 248.937943,375.965637 247.862259,375.301636 
	C238.809021,359.771912 233.472183,343.200562 230.418900,325.920288 
	C225.441544,297.750427 226.923248,269.912689 235.877197,242.267395 
	C239.092300,242.132050 239.068298,244.488205 239.350647,246.537445 
	C240.062454,251.703506 240.615082,256.893127 241.864761,262.392975 
	C243.013672,270.266449 244.806900,277.583710 246.667542,285.286682 
	C248.117050,293.040283 250.847672,299.982422 253.565384,307.326172 
	C256.070465,316.137268 259.828125,324.009857 263.787903,331.801331 
	C264.679565,333.555786 265.734558,335.255005 266.037903,337.624512 
z"/>
<path fill="#961417" opacity="1.000000" stroke="none" 
	d="
M441.386627,264.266083 
	C439.626953,255.335403 437.635468,246.835678 434.172668,238.359604 
	C437.421692,234.834915 441.667023,234.868713 445.764221,234.528580 
	C465.582733,232.883331 485.476471,232.480682 505.300262,230.771744 
	C515.527527,229.890091 525.808777,229.483093 536.047302,228.565460 
	C539.692566,228.238754 543.335327,228.584763 547.361450,229.228943 
	C549.795776,229.144043 551.304871,230.255524 552.535706,231.591827 
	C558.399292,237.957596 563.569031,244.847534 567.592041,252.533218 
	C568.397766,254.072571 569.446228,255.849258 567.211609,257.666870 
	C542.226196,257.689331 517.817871,260.414856 493.357361,262.280975 
	C485.417694,262.886719 477.455627,262.606232 469.492096,263.294586 
	C461.409851,263.993164 453.291840,264.622650 445.170471,264.983551 
	C443.998779,265.035645 442.846863,265.094574 441.386627,264.266083 
z"/>
<path fill="#AA151D" opacity="1.000000" stroke="none" 
	d="
M576.346802,296.605225 
	C570.235229,298.624146 564.026306,298.566254 557.986389,298.824066 
	C540.107727,299.587250 522.312988,301.478607 504.433411,302.319305 
	C488.914032,303.049042 473.329803,303.695923 457.853729,305.154694 
	C443.039825,306.551056 428.124481,306.692474 413.380249,308.887878 
	C411.458313,309.174072 409.398499,309.407684 407.215668,308.195587 
	C409.145844,302.560364 413.866852,299.674469 418.327332,296.767090 
	C423.085938,293.665405 427.864136,290.632538 432.551941,286.859253 
	C438.510345,285.158661 444.336395,284.728027 450.114075,284.554565 
	C475.543640,283.791229 500.863983,281.443481 526.224121,279.662750 
	C540.149231,278.684967 554.079590,277.781921 567.999512,276.728180 
	C570.372070,276.548584 572.656189,276.885498 575.015564,278.648163 
	C576.567383,284.592072 576.477234,290.395569 576.346802,296.605225 
z"/>
<path fill="#A1141A" opacity="1.000000" stroke="none" 
	d="
M575.487183,278.417053 
	C562.051147,277.871582 548.826050,279.765472 535.555237,280.871857 
	C525.681946,281.695007 515.800476,282.614624 505.904724,282.932220 
	C486.399689,283.558319 467.017120,286.149261 447.464935,286.225311 
	C442.832458,286.243317 438.022614,286.808655 433.091431,287.028931 
	C437.272919,281.860291 440.519409,276.458374 440.920837,269.291016 
	C441.007233,267.847992 441.006378,266.790131 441.035339,265.414948 
	C440.982880,264.916687 440.920563,264.735657 440.932678,264.277252 
	C457.993988,262.425415 475.025238,261.676453 492.055969,260.755280 
	C510.539429,259.755554 529.005676,258.068756 547.493164,256.828186 
	C554.129578,256.382874 560.648560,255.441284 567.649109,256.984253 
	C573.205078,258.193115 572.269958,262.928314 573.746338,266.685120 
	C573.948059,266.994110 574.164612,267.403992 574.110046,267.629272 
	C574.311218,268.262634 574.460144,268.705231 574.475708,269.543457 
	C574.826294,272.589508 575.187500,275.279663 575.487183,278.417053 
z"/>
<path fill="#8A1314" opacity="1.000000" stroke="none" 
	d="
M549.089478,229.649216 
	C546.781738,231.815170 544.543701,229.873566 542.320801,230.022171 
	C528.949707,230.916077 515.590088,232.016296 502.209412,232.720032 
	C493.268188,233.190308 484.302826,233.636368 475.388428,234.222290 
	C461.894867,235.109177 448.229156,234.734512 434.543945,237.983490 
	C430.337677,230.435410 426.669312,222.798340 421.736694,215.468475 
	C423.374390,212.456619 426.151031,211.841171 428.989288,211.634338 
	C443.040833,210.610260 457.116699,209.848877 471.135590,208.471283 
	C482.206299,207.383377 493.350708,208.015656 504.396881,206.612259 
	C508.530090,206.087128 512.664062,206.688202 517.170288,207.316223 
	C524.150024,207.052292 528.331848,211.902954 533.772461,214.959595 
	C539.292603,219.684067 545.080505,223.584869 549.089478,229.649216 
z"/>
<path fill="#BB1521" opacity="1.000000" stroke="none" 
	d="
M252.550354,205.119980 
	C256.389587,206.378067 260.080811,206.860779 263.936584,207.069153 
	C279.425446,207.906219 294.895538,209.089722 310.384277,209.929413 
	C312.832214,210.062119 313.233704,212.640900 315.650665,212.961258 
	C317.093140,213.987610 317.561646,215.338303 317.383606,216.636841 
	C316.091705,226.059753 317.237457,235.603516 315.671570,245.424744 
	C314.776764,246.439056 313.980835,246.697662 313.140015,246.427429 
	C301.393280,242.652054 289.113892,243.761765 277.090424,242.605759 
	C266.673645,241.604187 256.226044,240.753433 245.760513,240.233063 
	C243.123459,240.101929 240.466400,239.510391 238.057953,237.320618 
	C240.930069,225.622055 246.458649,215.401031 252.550354,205.119980 
z"/>
<path fill="#811312" opacity="1.000000" stroke="none" 
	d="
M314.766174,246.380829 
	C315.028931,235.298157 314.733215,224.580795 316.029358,213.461273 
	C318.248444,202.999161 320.180481,192.914291 324.033020,183.341385 
	C329.212463,170.471405 335.945740,158.556549 345.695374,148.139954 
	C348.688568,149.592102 347.552094,151.737869 346.592010,153.619385 
	C344.868347,156.997314 344.464111,160.548981 344.476135,164.256500 
	C344.518219,177.223236 344.503662,190.190262 344.482086,203.157089 
	C344.477295,206.037888 344.701233,208.812424 346.777893,211.577820 
	C333.063629,226.825638 326.683136,244.975937 323.922546,264.650940 
	C322.161560,277.201599 322.550629,289.799622 323.609619,302.844910 
	C321.020935,303.525879 321.006927,301.563507 320.637695,300.085754 
	C320.045898,297.717285 319.723053,295.285645 319.041260,292.488098 
	C317.069122,285.071838 316.822845,277.837189 315.727386,270.282654 
	C314.916260,262.167603 314.015289,254.496979 314.766174,246.380829 
z"/>
<path fill="#8A1314" opacity="1.000000" stroke="none" 
	d="
M266.403412,338.006470 
	C260.462860,328.801086 255.645706,319.275726 252.940018,308.401917 
	C258.054596,307.580475 262.796631,309.840302 267.901306,310.022614 
	C279.476898,310.436066 291.005371,311.743134 302.562622,312.570770 
	C309.790222,313.088348 317.101532,312.831512 324.601501,314.721313 
	C327.669739,323.735016 330.375000,332.469421 333.071869,341.592743 
	C323.460388,346.458893 313.561676,343.169220 303.915283,342.525970 
	C297.714691,342.112518 291.427734,342.115692 285.176056,341.294922 
	C278.965790,340.479614 272.749298,340.151245 266.403412,338.006470 
z"/>
<path fill="#AA151D" opacity="1.000000" stroke="none" 
	d="
M314.639404,245.962708 
	C316.619904,253.625031 315.862793,261.448364 316.997711,269.553650 
	C316.019379,270.779877 314.906219,270.906677 313.702057,270.763092 
	C297.706390,268.855591 281.581970,268.820496 265.550415,267.455231 
	C260.089569,266.990173 254.610733,266.680817 249.172577,266.015717 
	C246.570602,265.697479 243.845993,265.431580 241.332886,263.304321 
	C238.692352,257.879730 238.928482,252.286575 238.038498,246.904892 
	C237.777756,245.328201 238.261841,243.592255 236.428772,242.176224 
	C236.506012,240.448349 236.909348,238.928680 237.556961,237.175079 
	C245.567276,239.724991 253.777954,239.183517 261.784424,239.890701 
	C277.389801,241.269119 293.048401,242.065628 308.693451,242.953201 
	C311.179749,243.094269 312.136719,245.472717 314.639404,245.962708 
z"/>
<path fill="#991519" opacity="1.000000" stroke="none" 
	d="
M396.748779,120.882263 
	C405.773010,119.685623 414.522736,120.419151 423.625427,121.794197 
	C425.668060,123.876465 425.558685,126.240799 425.562592,128.550293 
	C425.591034,145.264694 425.557495,161.979202 425.592316,178.693527 
	C425.600189,182.473297 424.932831,185.928360 421.903870,189.126495 
	C420.623810,190.457855 419.444580,191.159149 418.123169,191.218979 
	C410.606781,191.559296 403.074890,192.311432 395.197327,190.457947 
	C393.503571,185.678482 395.580414,181.378723 395.507629,176.902344 
	C395.245789,160.802200 395.383484,144.695023 395.424194,128.590622 
	C395.430420,126.129379 395.088837,123.578590 396.748779,120.882263 
z"/>
<path fill="#911416" opacity="1.000000" stroke="none" 
	d="
M396.509827,120.348312 
	C396.970215,140.489853 396.940948,160.539917 397.046204,180.589279 
	C397.062469,183.688446 395.950806,186.398544 395.044861,189.618393 
	C395.432831,190.714752 395.063812,191.209686 394.275238,191.825562 
	C386.237854,191.251434 378.797455,192.396622 371.351471,195.716003 
	C368.626160,193.881775 368.519684,191.158203 368.499847,188.526459 
	C368.370056,171.314621 368.425964,154.102203 368.450531,136.889908 
	C368.454987,133.762924 369.338654,131.040329 371.769409,128.359940 
	C376.226715,124.453758 381.289001,122.913094 386.715302,121.372650 
	C389.999573,120.829948 393.031891,120.543282 396.509827,120.348312 
z"/>
<path fill="#811312" opacity="1.000000" stroke="none" 
	d="
M394.296326,192.171631 
	C394.254700,191.494720 394.520660,191.007812 394.893433,190.264557 
	C403.405792,189.597473 411.854370,190.803680 420.614929,189.170532 
	C422.219727,187.951721 423.672882,187.668625 425.204590,187.889908 
	C432.325592,188.918640 439.489594,188.273956 447.080322,188.518372 
	C455.988342,188.892471 464.289490,190.505814 473.068481,191.708084 
	C481.732208,193.481277 490.043732,194.923615 498.410583,197.830383 
	C504.237610,199.867447 509.563812,202.096725 514.966797,204.125046 
	C516.649109,204.756607 518.488098,205.212540 519.112305,207.604309 
	C516.496033,209.934555 513.914978,207.883560 511.377411,208.056686 
	C500.142090,208.823151 488.857422,208.556351 477.643768,209.839035 
	C472.220886,210.459320 466.747894,210.653534 461.294708,210.994507 
	C450.222809,211.686829 439.143219,212.271240 428.081299,213.094833 
	C426.171906,213.237000 424.333954,214.339355 422.052979,215.061920 
	C417.283081,209.769791 413.321045,204.075439 407.947510,199.598022 
	C403.968536,196.282608 399.682495,193.611633 394.296326,192.171631 
z"/>
<path fill="#961417" opacity="1.000000" stroke="none" 
	d="
M325.146545,314.607056 
	C309.952881,315.053009 295.044067,313.636719 280.125336,312.140106 
	C274.900604,311.615967 269.609528,311.504608 264.354248,311.175659 
	C260.407593,310.928650 256.920105,310.222687 253.301285,308.040955 
	C249.446640,301.337555 247.070877,294.308716 245.971771,286.443420 
	C246.297455,283.473236 248.306290,284.077881 249.784210,284.209656 
	C266.975281,285.742523 284.222260,286.549042 301.402985,288.191467 
	C304.878113,288.523743 308.396576,288.227692 311.832092,288.950256 
	C314.409637,289.492371 317.151733,289.570435 319.661469,291.697693 
	C322.087341,295.301086 321.192688,299.360291 323.093903,303.050964 
	C323.430878,303.308441 323.362030,303.303406 323.395874,303.290405 
	C323.106781,304.008179 323.499603,304.697479 323.773804,305.695923 
	C325.005859,308.636230 325.248291,311.411743 325.146545,314.607056 
z"/>
<path fill="#891313" opacity="1.000000" stroke="none" 
	d="
M371.685791,128.083282 
	C367.716309,143.877716 370.842468,160.117447 370.102509,176.197479 
	C369.816223,182.418839 369.139160,188.772919 370.980530,195.353882 
	C362.524597,200.115433 354.476227,205.085419 347.266296,211.866440 
	C343.685791,212.160248 343.049927,209.892853 343.040771,207.433624 
	C342.981323,191.488449 342.978912,175.542816 343.045258,159.597702 
	C343.054962,157.266815 343.916199,155.102509 345.268280,153.122070 
	C346.164001,151.810013 347.428528,150.441956 346.128082,148.301819 
	C353.174988,139.764694 361.070557,132.461166 371.685791,128.083282 
z"/>
<path fill="#A1141A" opacity="1.000000" stroke="none" 
	d="
M448.353027,189.650238 
	C439.285126,189.860748 430.535370,190.523300 421.432648,189.005249 
	C424.871704,184.217773 423.988159,178.531662 423.993835,173.026169 
	C424.010986,156.314819 424.000092,139.603439 424.000427,122.419891 
	C433.131195,122.249596 441.827789,124.812263 450.885742,127.245644 
	C452.558167,130.506409 451.527679,133.681580 451.542969,136.794601 
	C451.613037,151.070206 451.615692,165.346588 451.549774,179.622421 
	C451.533752,183.097458 451.651031,186.674057 448.353027,189.650238 
z"/>
<path fill="#911416" opacity="1.000000" stroke="none" 
	d="
M392.425537,468.872864 
	C359.129791,467.275055 329.276581,456.614502 301.996460,437.664337 
	C302.650482,433.147583 305.851196,434.793060 308.076569,435.187195 
	C314.945770,436.403839 321.744598,438.009308 328.559692,439.520721 
	C364.094971,447.401855 399.531525,455.723358 435.106720,463.429901 
	C437.881805,464.031036 442.340332,463.173950 442.236328,468.616913 
	C426.949860,469.046112 411.898956,469.120331 396.386871,469.078796 
	C394.863678,468.983002 393.801544,469.012268 392.425537,468.872864 
z"/>
<path fill="#AA151D" opacity="1.000000" stroke="none" 
	d="
M448.437683,189.993042 
	C450.061035,185.674332 450.064270,181.087921 450.033051,176.437302 
	C449.940796,162.678131 450.025513,148.917847 449.976166,135.158234 
	C449.967743,132.808395 450.165192,130.538773 451.105042,127.893661 
	C458.513184,129.648026 466.002411,131.408417 472.491547,135.813126 
	C473.617126,136.577133 475.224060,136.631958 476.895874,137.229309 
	C478.524475,140.337677 477.530579,143.342026 477.543884,146.285873 
	C477.598389,158.385208 477.589233,170.485107 477.557098,182.584763 
	C477.547760,186.100952 477.377441,189.580139 474.391541,192.654984 
	C465.630096,191.965881 457.250061,190.983185 448.437683,189.993042 
z"/>
<path fill="#B1161F" opacity="1.000000" stroke="none" 
	d="
M474.363342,193.119385 
	C478.155914,177.500366 475.067841,161.745071 475.963684,146.157547 
	C476.115814,143.510284 475.953583,140.857025 477.103851,137.896790 
	C487.843689,142.039780 497.472809,148.354156 506.939148,155.496017 
	C506.076294,167.556549 506.624603,179.354507 506.511444,191.139481 
	C506.467468,195.716812 504.571564,198.391129 499.450928,198.927582 
	C490.903900,197.099258 482.810211,195.194717 474.363342,193.119385 
z"/>
<path fill="#991519" opacity="1.000000" stroke="none" 
	d="
M442.456543,469.090271 
	C442.465637,465.519104 439.520294,465.863190 437.710449,465.455017 
	C420.463806,461.565125 403.175476,457.860687 385.920044,454.009155 
	C375.591919,451.703796 365.313507,449.176392 354.990601,446.847015 
	C339.039978,443.247772 323.074249,439.715027 307.102814,436.209167 
	C305.508942,435.859314 303.801483,435.611938 302.058380,437.040222 
	C296.345001,434.141754 291.616394,429.940247 286.693298,425.465912 
	C288.609528,422.949249 291.165527,423.690155 293.549591,424.224152 
	C330.617523,432.526520 367.708313,440.726532 404.780090,449.010986 
	C426.567719,453.879913 448.304871,458.971100 470.160309,463.538605 
	C472.832977,464.097168 476.543732,463.808472 476.235687,468.617767 
	C464.970612,469.049774 453.941467,469.129211 442.456543,469.090271 
z"/>
<path fill="#BB1521" opacity="1.000000" stroke="none" 
	d="
M499.220886,199.282959 
	C506.234009,196.447174 505.110779,190.422241 505.026825,184.728821 
	C504.917358,177.306442 505.041626,169.880859 504.974609,162.457474 
	C504.954620,160.248627 505.075958,158.173630 506.922913,156.149292 
	C519.316895,164.301743 529.474854,174.941956 538.858887,186.809357 
	C540.776184,189.929581 539.411865,192.937027 539.474365,195.833740 
	C539.577393,200.610336 539.654236,205.397385 539.406555,210.172653 
	C539.253052,213.132538 538.512207,215.797485 534.410156,216.107178 
	C528.784973,214.197769 525.126709,209.603439 519.374634,208.125565 
	C513.142090,203.723312 505.961121,202.414902 499.220886,199.282959 
z"/>
<path fill="#9E161B" opacity="1.000000" stroke="none" 
	d="
M476.454590,469.087158 
	C476.391937,465.748291 473.733490,465.567719 471.809509,465.173950 
	C425.052429,455.604553 378.638275,444.492584 332.049316,434.168823 
	C318.988739,431.274719 305.938843,428.331757 292.866669,425.491241 
	C291.113007,425.110229 289.256836,425.201172 286.986389,425.116638 
	C282.929688,423.559509 280.869415,420.251587 278.052734,417.336853 
	C279.614380,415.337189 281.633331,415.818848 283.565582,416.252472 
	C319.409546,424.295685 355.381226,431.776764 391.039307,440.637695 
	C393.775665,441.317657 396.411621,442.368591 399.595398,442.964172 
	C402.378052,442.790497 404.599854,443.376923 406.847412,444.067535 
	C426.162415,450.002777 445.839813,454.516174 465.549377,458.893677 
	C466.142426,459.025391 466.833588,458.715332 467.744965,458.350677 
	C475.374237,459.868683 482.738434,461.643646 490.100250,463.428436 
	C491.793060,463.838867 493.501984,464.555115 493.328094,466.561249 
	C493.132996,468.811951 491.286469,469.272430 489.294800,469.253662 
	C485.166504,469.214752 481.037872,469.218018 476.454590,469.087158 
z"/>
<path fill="#A1141A" opacity="1.000000" stroke="none" 
	d="
M399.780701,442.710602 
	C395.185730,443.769745 390.729675,441.865601 386.234894,440.801056 
	C364.029236,435.541931 341.703430,430.826385 319.463074,425.743591 
	C307.544037,423.019653 295.537415,420.679047 283.678223,417.704437 
	C282.040253,417.293549 280.458832,416.960571 278.360504,417.014709 
	C273.812134,414.408051 271.326447,410.230377 268.028809,406.425262 
	C269.085022,402.437378 271.920990,403.881470 274.009033,404.409241 
	C288.359802,408.036896 302.945404,410.619019 317.302551,414.182709 
	C327.288940,416.661469 337.548065,418.118134 347.606018,421.949280 
	C354.511353,424.754639 360.943054,427.683899 367.511688,430.264832 
	C378.144196,434.442474 388.866608,438.391357 399.780701,442.710602 
z"/>
<path fill="#BC1521" opacity="1.000000" stroke="none" 
	d="
M247.555511,375.515167 
	C255.837372,375.016113 263.685822,377.916016 271.753021,379.490662 
	C281.300720,381.354309 290.734467,383.801727 300.635010,385.994537 
	C307.660461,390.076050 312.345917,396.389191 318.482422,401.024384 
	C320.295349,402.393738 321.981689,403.930756 323.878235,405.693665 
	C322.746307,407.215759 321.263031,406.864685 319.805237,406.491791 
	C299.521118,401.302704 279.014252,397.085144 258.195374,392.414673 
	C253.713287,387.307251 250.568588,381.660889 247.555511,375.515167 
z"/>
<path fill="#B1161F" opacity="1.000000" stroke="none" 
	d="
M257.814026,392.721375 
	C258.809448,390.552277 260.185547,391.380524 261.662262,391.713165 
	C282.217072,396.343567 302.865265,400.568390 323.634186,405.990936 
	C329.327026,408.166351 333.294006,412.299408 337.882080,415.504944 
	C341.018250,417.696167 344.288574,419.589447 347.813843,421.709656 
	C344.675018,423.283478 341.683990,421.248566 338.697968,420.594849 
	C316.670319,415.772339 294.733978,410.532135 272.775635,405.394501 
	C271.294525,405.047943 269.874390,404.730072 268.199066,405.802826 
	C264.204742,402.042328 260.855804,397.680542 257.814026,392.721375 
z"/>
<path fill="#C91625" opacity="1.000000" stroke="none" 
	d="
M534.115723,216.314423 
	C537.069458,215.021866 538.067688,212.976547 538.100403,209.656296 
	C538.171814,202.425598 537.084900,195.125565 538.957642,187.549408 
	C553.830933,205.007370 563.639221,225.497711 569.971375,247.717026 
	C571.693176,253.758804 572.696045,260.005463 573.988464,266.576111 
	C571.333679,264.234314 571.577454,259.916687 568.374634,257.152771 
	C564.077271,246.605606 557.090210,238.298431 549.286255,230.183182 
	C544.099060,225.536377 539.188721,221.073166 534.115723,216.314423 
z"/>
<path fill="#C91625" opacity="1.000000" stroke="none" 
	d="
M575.952637,307.638550 
	C574.574219,306.520416 574.848267,305.000153 575.745605,303.237610 
	C576.035278,304.466827 576.057800,305.910736 575.952637,307.638550 
z"/>
<path fill="#B1161F" opacity="1.000000" stroke="none" 
	d="
M392.359924,468.952667 
	C393.148682,467.707489 394.323456,467.867035 395.735168,468.713379 
	C394.820435,469.000977 393.715179,469.038910 392.359924,468.952667 
z"/>
<path fill="#C91625" opacity="1.000000" stroke="none" 
	d="
M440.945190,265.355133 
	C442.280243,266.081512 442.112213,267.268311 441.290924,268.709656 
	C440.976593,267.807953 440.910858,266.710266 440.945190,265.355133 
z"/>
<path fill="#C91625" opacity="1.000000" stroke="none" 
	d="
M574.032715,319.431763 
	C574.119324,318.146088 574.278381,317.295624 574.691528,316.239563 
	C574.891479,317.442108 574.837280,318.850189 574.553955,320.489929 
	C574.251648,320.436676 574.178406,320.151825 574.032715,319.431763 
z"/>
<path fill="#BB1521" opacity="1.000000" stroke="none" 
	d="
M574.537720,269.634735 
	C574.309021,269.397491 574.152832,268.895599 574.026123,268.124146 
	C574.240417,268.359741 574.425354,268.864899 574.537720,269.634735 
z"/>
<path fill="#9E161B" opacity="1.000000" stroke="none" 
	d="
M324.060577,305.624268 
	C323.329987,305.489136 323.076172,304.823669 323.305237,303.643951 
	C323.662018,303.939301 323.894348,304.601227 324.060577,305.624268 
z"/>
<path fill="#F6F8FA" opacity="1.000000" stroke="none" 
	d="
M345.223206,563.693848 
	C341.102936,564.163452 340.105530,562.939392 341.214294,559.237671 
	C344.599304,547.936646 353.063080,541.220703 364.201874,541.404602 
	C375.145386,541.585205 383.325745,548.688721 386.394257,560.242371 
	C387.328796,563.761230 385.637787,563.728210 383.157379,563.718201 
	C370.670410,563.667908 358.183075,563.694275 345.223206,563.693848 
z"/>
<path fill="#F6F8FA" opacity="1.000000" stroke="none" 
	d="
M201.825089,563.694458 
	C189.523102,563.694580 177.694733,563.563477 165.872162,563.768250 
	C161.880966,563.837341 161.521942,562.626831 162.631744,559.135315 
	C166.171661,547.998291 173.861755,541.653503 184.692535,541.407410 
	C195.185562,541.169006 202.923279,546.822937 206.784409,557.549866 
	C208.984665,563.662598 208.976547,563.673767 201.825089,563.694458 
z"/>
<path fill="#F6F8FA" opacity="1.000000" stroke="none" 
	d="
M590.672729,607.887329 
	C587.151428,609.221130 583.861206,609.713684 580.524841,609.787048 
	C572.552246,609.962646 566.532166,605.429443 565.620178,598.669861 
	C564.675354,591.667480 569.591553,583.986511 576.807983,582.472107 
	C585.320068,580.685730 594.047363,581.989197 602.676758,581.758850 
	C604.584351,581.707886 604.642944,583.129395 604.641113,584.532104 
	C604.636047,588.524719 604.552673,592.520325 604.685303,596.508606 
	C604.749939,598.450989 603.721375,599.604736 602.445435,600.704590 
	C599.020142,603.657043 595.275208,606.102539 590.672729,607.887329 
z"/>
<path fill="#A1141A" opacity="1.000000" stroke="none" 
	d="
M320.005798,291.577942 
	C295.661377,287.955933 270.949738,288.011200 246.216156,285.746277 
	C243.125290,278.905975 241.897934,271.421570 240.986908,263.434570 
	C255.600983,265.916046 270.555878,265.353577 285.234772,267.223145 
	C295.549713,268.536926 306.163818,266.084930 316.594482,269.991882 
	C317.997650,277.051544 319.000183,284.104340 320.005798,291.577942 
z"/>
</svg>