<?xml version="1.0" encoding="utf-8"?>
<!-- Generator: Adobe Illustrator 26.0.3, SVG Export Plug-In . SVG Version: 6.00 Build 0)  -->
<svg version="1.1" id="Layer_1" xmlns="http://www.w3.org/2000/svg" xmlns:xlink="http://www.w3.org/1999/xlink" x="0px" y="0px"
	 viewBox="0 0 500 500" style="enable-background:new 0 0 500 500;" xml:space="preserve">
<style type="text/css">
	.st0{fill:none;stroke:url(#SVGID_1_);stroke-width:0.7513;stroke-miterlimit:10;}
	.st1{fill:url(#SVGID_00000080890743214991360730000003369330518956129932_);}
	.st2{fill:url(#SVGID_00000129918072850968069590000008089582249282221184_);}
	.st3{fill:#FFFFFF;}
	.st4{fill:url(#SVGID_00000167398294796615352250000006172327938772381618_);}
	.st5{fill:#86C5EC;}
	.st6{fill:#FA7554;}
	.st7{fill:#871FFF;}
	.st8{fill:url(#SVGID_00000145048606390020735240000014490638517344820892_);}
	.st9{fill:url(#SVGID_00000067224979993170572780000010734018267730730156_);}
	
		.st10{fill:none;stroke:url(#SVGID_00000075137390192025289440000009377299769117360291_);stroke-width:0.6574;stroke-miterlimit:10;}
	.st11{fill:url(#SVGID_00000132795146533789461920000006356363580865878158_);}
	
		.st12{fill:none;stroke:url(#SVGID_00000036212522198049592380000002581783008624250301_);stroke-width:0.7621;stroke-miterlimit:10;}
	.st13{fill:url(#SVGID_00000054239779184182598400000010669688469103064215_);}
	.st14{fill:url(#SVGID_00000027572251455004655690000016582297332689263000_);}
	.st15{fill:url(#SVGID_00000143584252574976185270000005515491455650995882_);}
</style>
<linearGradient id="SVGID_1_" gradientUnits="userSpaceOnUse" x1="368.7906" y1="216.4819" x2="489.2484" y2="216.4819" gradientTransform="matrix(0.613 0.7901 -0.7901 0.613 365.4818 -266.9556)">
	<stop  offset="8.011200e-04" style="stop-color:#871FFF"/>
	<stop  offset="1" style="stop-color:#86C5EC"/>
</linearGradient>
<path class="st0" d="M466.7,121.4c16.4,36,16.6,121.3-18.9,166.6"/>
<linearGradient id="SVGID_00000004517587217149030470000004416442160938525582_" gradientUnits="userSpaceOnUse" x1="248.0758" y1="475.4745" x2="248.0758" y2="169.9918">
	<stop  offset="0" style="stop-color:#F8A79A"/>
	<stop  offset="0.9975" style="stop-color:#871FFF"/>
</linearGradient>
<path style="fill:url(#SVGID_00000004517587217149030470000004416442160938525582_);" d="M6.9,393.5L125,324c3.3-1.9,7.3-1.9,10.5,0
	l118,69.4c3.9,2.3,3.9,8,0,10.3l-118.1,69.4c-3.3,1.9-7.3,1.9-10.5,0l-118-69.4C3,401.5,3,395.8,6.9,393.5z M113,284.2l180.9,104.4
	c4,2.3,9,2.3,13.1,0l180.9-104.4c5.8-3.4,5.8-11.7,0-15.1L306.9,164.6c-4-2.3-9-2.3-13.1,0L113,269.1
	C107.2,272.4,107.2,280.8,113,284.2z"/>
<linearGradient id="SVGID_00000152246822946602751160000011241155627269659811_" gradientUnits="userSpaceOnUse" x1="302.7896" y1="220.1184" x2="302.7896" y2="349.8815">
	<stop  offset="0" style="stop-color:#D6219C"/>
	<stop  offset="0.9984" style="stop-color:#FFA68C"/>
</linearGradient>
<path style="fill:url(#SVGID_00000152246822946602751160000011241155627269659811_);" d="M311.5,347.7l129.2-74.4
	c2.1-1.2,3.5-3.5,3.5-6l-0.1-52.9l-139.4,80.5l-143.2-82.8l-0.1,52.8c0,2.5,1.3,4.7,3.4,6l132.9,76.8
	C302,350.2,307.3,350.2,311.5,347.7z"/>
<polygon class="st3" points="444.1,214.4 304.6,294.9 161.5,212.1 299.3,131.1 "/>
<g>
	
		<linearGradient id="SVGID_00000145031967006913462890000007370841714912963759_" gradientUnits="userSpaceOnUse" x1="310.4716" y1="254.0913" x2="310.4716" y2="161.9105">
		<stop  offset="0" style="stop-color:#D6219C"/>
		<stop  offset="0.9984" style="stop-color:#FFA68C"/>
	</linearGradient>
	<path style="fill:url(#SVGID_00000145031967006913462890000007370841714912963759_);" d="M291.5,257.1l98.2-56.8
		c1.7-1,2.8-2.8,2.8-4.8v-6.3l-106.6,61.5l-57.4-33.1l0.1,6.3c0,2,1.1,3.7,2.8,4.7l49.2,28.4C283.9,259.1,288.1,259.1,291.5,257.1z"
		/>
	<polygon class="st3" points="240.9,215.3 290.5,244 384.5,189.4 380.2,187 376,189.3 335.1,165.6 339.3,163.3 335.1,160.9 	"/>
	<polygon class="st5" points="273.7,201.1 261.3,208.2 294.1,227.1 306.4,220 	"/>
	<polygon class="st6" points="318.7,194 310.5,198.8 335.1,213 343.3,208.2 	"/>
	<polygon class="st6" points="298.4,196.3 290.2,201 323,219.9 331.2,215.2 	"/>
	<polygon class="st6" points="257.3,210.6 249.1,215.3 290.1,239 298.2,234.2 	"/>
	<polygon class="st5" points="318.7,175.1 310.5,179.8 343.3,198.8 351.5,194 	"/>
	<polygon class="st6" points="343.2,170.4 335,175.1 367.8,194.1 376,189.3 	"/>
	<path class="st7" d="M335.1,156.2l-106.5,61.5l57.3,33.1l106.6-61.5L335.1,156.2z M240.9,215.3l94.2-54.4l4.2,2.4l-4.2,2.3
		l40.9,23.7l4.2-2.3l4.2,2.4l-94,54.6L240.9,215.3z"/>
</g>
<g>
	
		<linearGradient id="SVGID_00000057109729680478486260000014833742925838088359_" gradientUnits="userSpaceOnUse" x1="150.8494" y1="156.2478" x2="190.2459" y2="156.2478">
		<stop  offset="0" style="stop-color:#83BFE8"/>
		<stop  offset="1" style="stop-color:#86C5EC"/>
	</linearGradient>
	<polygon style="fill:url(#SVGID_00000057109729680478486260000014833742925838088359_);" points="150.8,127.9 150.9,161.9 
		164.6,169.8 169.2,181.3 174.4,175.5 190.2,184.6 190.2,150.5 	"/>
	<g>
		<g>
			<polygon class="st3" points="183.8,157.9 154.3,140.9 154.3,139.1 183.8,156.1 			"/>
		</g>
		<g>
			<polygon class="st3" points="183.8,163.6 154.3,146.6 154.3,144.8 183.8,161.9 			"/>
		</g>
		<g>
			<polygon class="st3" points="183.8,169.3 154.3,152.3 154.3,150.5 183.8,167.5 			"/>
		</g>
		<g>
			<polygon class="st3" points="169,166.4 154.3,157.9 154.3,156.2 169,164.7 			"/>
		</g>
	</g>
	
		<linearGradient id="SVGID_00000152971670700931976640000016248869711187326637_" gradientUnits="userSpaceOnUse" x1="152.1118" y1="131.3918" x2="200.2026" y2="179.4826">
		<stop  offset="8.011200e-04" style="stop-color:#871FFF"/>
		<stop  offset="0.9984" style="stop-color:#86C5EC"/>
	</linearGradient>
	<path style="fill:url(#SVGID_00000152971670700931976640000016248869711187326637_);" d="M150.8,127.9l6.6-3.8c2-1.2,4.6-1.2,6.6,0
		l31,17.9c3.1,1.8,4.9,5,4.9,8.6l0.1,24.6c0,2.4-1.3,4.6-3.3,5.7l-6.5,3.8l-0.1-34.1L150.8,127.9z M177.3,177.2l-3-1.7l-5.2,5.8
		L177.3,177.2z"/>
</g>
<linearGradient id="SVGID_00000180328634135980165150000015470170452600351114_" gradientUnits="userSpaceOnUse" x1="1319.9272" y1="297.3203" x2="1328.3197" y2="297.3203" gradientTransform="matrix(-1 0 0 1 1414.6313 0)">
	<stop  offset="8.011200e-04" style="stop-color:#6F54A2"/>
	<stop  offset="1" style="stop-color:#84C5EC"/>
</linearGradient>
<path style="fill:none;stroke:url(#SVGID_00000180328634135980165150000015470170452600351114_);stroke-width:0.6574;stroke-miterlimit:10;" d="
	M94.4,310.3c-2.3-8.8-4.9-17.4-7.8-25.9"/>
<path class="st7" d="M76.2,270.5l0,140.4l65.5-37.8l0-140.4L76.2,270.5z M80.9,397.4l0-124.2l4.7-2.7l0,5.4l46.8-27l0-5.4l4.7-2.7
	l0,124.2L80.9,397.4z"/>
<linearGradient id="SVGID_00000038409068455491211460000003961345474091447179_" gradientUnits="userSpaceOnUse" x1="104.3044" y1="408.4675" x2="104.3044" y2="227.3055">
	<stop  offset="0" style="stop-color:#D6219C"/>
	<stop  offset="0.9984" style="stop-color:#FFA68C"/>
</linearGradient>
<path style="fill:url(#SVGID_00000038409068455491211460000003961345474091447179_);" d="M141.7,232.7l-7.8-4.5
	c-1-0.6-2.2-0.6-3.1,0L70,263.3c-1.9,1.1-3.1,3.2-3.1,5.5l0,136.8l9.4,5.4l0-140.4L141.7,232.7z"/>
<polygon class="st3" points="80.9,397.4 80.9,273.2 85.6,270.5 85.6,275.9 132.4,248.9 132.4,243.5 137.1,240.8 137,365 "/>
<path class="st5" d="M99.4,345.9L99.4,345.9c-1.2,0-2.2-1-2.2-2.2v-37.9c0-1.2,1-2.2,2.2-2.2l0,0c1.2,0,2.2,1,2.2,2.2v37.9
	C101.6,344.9,100.6,345.9,99.4,345.9z"/>
<path class="st5" d="M107.1,334.8L107.1,334.8c-1.2,0-2.2-1-2.2-2.2v-21.1c0-1.2,1-2.2,2.2-2.2h0c1.2,0,2.2,1,2.2,2.2v21.1
	C109.3,333.8,108.3,334.8,107.1,334.8z"/>
<path class="st5" d="M114.8,339L114.8,339c-1.2,0-2.2-1-2.2-2.2v-44.6c0-1.2,1-2.2,2.2-2.2h0c1.2,0,2.2,1,2.2,2.2v44.6
	C117.1,338,116.1,339,114.8,339z"/>
<path class="st5" d="M121.9,331.6L121.9,331.6c-1.2,0-2.2-1-2.2-2.2v-30.3c0-1.2,1-2.2,2.2-2.2l0,0c1.2,0,2.2,1,2.2,2.2v30.3
	C124.1,330.6,123.1,331.6,121.9,331.6z"/>
<path class="st5" d="M129.1,319.3L129.1,319.3c-1.2,0-2.2-1-2.2-2.2v-12.7c0-1.2,1-2.2,2.2-2.2l0,0c1.2,0,2.2,1,2.2,2.2v12.7
	C131.3,318.3,130.4,319.3,129.1,319.3z"/>
<path class="st5" d="M91.7,343.1L91.7,343.1c-1.2,0-2.2-1-2.2-2.2v-19.4c0-1.2,1-2.2,2.2-2.2h0c1.2,0,2.2,1,2.2,2.2v19.4
	C93.9,342.1,92.9,343.1,91.7,343.1z"/>
<linearGradient id="SVGID_00000029727958433604230140000002668653772940185499_" gradientUnits="userSpaceOnUse" x1="220.6677" y1="162.6658" x2="256.7552" y2="162.6658" gradientTransform="matrix(0.9959 3.591502e-02 3.591502e-02 0.6877 -1.3452 11.6976)">
	<stop  offset="8.011200e-04" style="stop-color:#871FFF"/>
	<stop  offset="1" style="stop-color:#86C5EC"/>
</linearGradient>
<path style="fill:none;stroke:url(#SVGID_00000029727958433604230140000002668653772940185499_);stroke-width:0.7621;stroke-miterlimit:10;" d="
	M228.9,180.9c-9.6-46.1,5-75.3,28.4-97.4"/>
<g>
	<g>
		<polygon class="st3" points="382.8,69.7 382.8,103.8 396.5,111.7 401.2,123.2 406.3,117.4 422.2,126.6 422.1,92.4 		"/>
		
			<linearGradient id="SVGID_00000072261512810280477700000013378671579847334308_" gradientUnits="userSpaceOnUse" x1="384.0299" y1="73.2224" x2="432.2128" y2="121.4053">
			<stop  offset="8.011200e-04" style="stop-color:#871FFF"/>
			<stop  offset="1" style="stop-color:#86C5EC"/>
		</linearGradient>
		<path style="fill:url(#SVGID_00000072261512810280477700000013378671579847334308_);" d="M382.8,69.7l6.6-3.8
			c2.1-1.2,4.6-1.2,6.6,0l31,18c3.1,1.8,4.9,5,5,8.6l0.1,24.6c0,2.4-1.3,4.6-3.3,5.8l-6.5,3.8l-0.1-34.2L382.8,69.7z M409.3,119.1
			l-3-1.8l-5.2,5.8L409.3,119.1z"/>
	</g>
	<g>
		<polygon class="st3" points="419.6,60.6 419.7,94.7 433.3,102.6 438,114.1 443.1,108.3 459.1,117.5 459,83.3 		"/>
		
			<linearGradient id="SVGID_00000113328079574481527720000010023672322753595567_" gradientUnits="userSpaceOnUse" x1="420.8569" y1="64.1298" x2="469.0399" y2="112.3127">
			<stop  offset="8.011200e-04" style="stop-color:#871FFF"/>
			<stop  offset="1" style="stop-color:#86C5EC"/>
		</linearGradient>
		<path style="fill:url(#SVGID_00000113328079574481527720000010023672322753595567_);" d="M419.6,60.6l6.6-3.8
			c2.1-1.2,4.6-1.2,6.6,0l31,18c3.1,1.8,4.9,5,5,8.6l0.1,24.6c0,2.4-1.3,4.6-3.3,5.8l-6.5,3.8L459,83.3L419.6,60.6z M446.1,110
			l-3-1.8l-5.2,5.8L446.1,110z"/>
	</g>
	<ellipse transform="matrix(0.9202 -0.3916 0.3916 0.9202 -7.918 169.4568)" class="st5" cx="411.5" cy="104.1" rx="2.5" ry="4.4"/>
	<ellipse transform="matrix(0.9202 -0.3916 0.3916 0.9202 -6.3831 164.9073)" class="st5" cx="401.2" cy="98.1" rx="2.5" ry="4.4"/>
	<ellipse transform="matrix(0.9202 -0.3916 0.3916 0.9202 -4.8647 160.361)" class="st5" cx="390.8" cy="92.1" rx="2.5" ry="4.4"/>
	<ellipse transform="matrix(0.9202 -0.3916 0.3916 0.9202 -1.2648 183.3927)" class="st5" cx="449" cy="94.8" rx="2.5" ry="4.4"/>
	<ellipse transform="matrix(0.9202 -0.3916 0.3916 0.9202 0.27 178.8431)" class="st5" cx="438.7" cy="88.8" rx="2.5" ry="4.4"/>
	<ellipse transform="matrix(0.9202 -0.3916 0.3916 0.9202 1.7885 174.2969)" class="st5" cx="428.3" cy="82.8" rx="2.5" ry="4.4"/>
</g>
<g>
	<g>
		<polygon class="st5" points="238.7,31.4 238.8,74.4 256,84.3 261.9,98.8 268.4,91.5 288.4,103 288.3,60 		"/>
		
			<linearGradient id="SVGID_00000024704308720738143180000011942362953256934568_" gradientUnits="userSpaceOnUse" x1="1222.9731" y1="23.2776" x2="1144.8765" y2="101.3742" gradientTransform="matrix(-1 0 0 1 1450.6958 0)">
			<stop  offset="8.011200e-04" style="stop-color:#871FFF"/>
			<stop  offset="1" style="stop-color:#86C5EC"/>
		</linearGradient>
		<path style="fill:url(#SVGID_00000024704308720738143180000011942362953256934568_);" d="M288.3,60l0.1,43l8.2-4.7
			c2.6-1.5,4.2-4.3,4.2-7.2l-0.1-31c0-4.5-2.4-8.6-6.2-10.8l-39.1-22.6c-2.6-1.5-5.8-1.5-8.3,0l-8.3,4.8L288.3,60z M261.9,98.8
			l6.5-7.3l3.4,2L261.9,98.8z"/>
	</g>
	<path class="st3" d="M277.8,70.6c-0.5-0.4-0.9-0.5-1.3-0.5c-1.4,0.1-2.8,2-4.2,2.2c-0.1,0-0.2,0-0.3,0c-0.3-0.8-0.6-1.7-1-2.5
		c0.2-0.1,0.6-0.1,0.8-0.3c1.9-1,2.5-3,1.6-6.2c-0.9-3.2-2.9-5.8-5.7-7.9c-0.1-0.1-0.2-0.1-0.2-0.2c-0.5-0.3-0.9-0.5-1.4-0.8
		c-0.3-0.1-0.6-0.2-0.8-0.3c-2.5-0.8-4.3-0.2-5.1,1.8c0,0.1-0.1,0.1-0.1,0.2c-1-2.5-2.5-4.5-4.6-6c-1.6-1.1-3-1.5-4.3-1.3
		c-2.5,0.4-3.5,3.9-0.8,8.5c-1.3,0.2-1.7,1.3-1.7,2.9c0,2.2,0,4.5,0,6.7c0,1.4,0.4,2.8,1.5,4.3c0.6,0.8,1.3,1.5,2,2
		c0.1,0.1,0.2,0.1,0.3,0.2c5.2,3,10.5,6,15.7,9.1c0.2,0.1,0.5,0.2,0.7,0.3c1.7,0.5,2.9-0.2,3-1.9c0-0.1,0-0.2,0-0.3
		c0.1,0.1,0.2,0.2,0.2,0.3c1.4,2,2.8,4,4.2,6c0.2,0.3,0.4,0.5,0.7,0.8c0.1,0.1,0.3,0.2,0.4,0.2c0.2,0,0.3,0.1,0.5,0.1
		c0.9,0.1,1.4-0.3,1.4-1.3c0-3.8,0-9.3,0-13.1C279.5,72.8,278.8,71.4,277.8,70.6z M254.8,59c-1.8-1.1-3.2-3.3-3.3-5.2
		c0-1.8,1.5-2.4,3.3-1.4c1.8,1,3.3,3.4,3.3,5.2C258.1,59.5,256.6,60.1,254.8,59z M267,66.1c-2.4-1.4-4.3-4.3-4.3-6.7
		c0-2.3,1.9-3.1,4.2-1.8c2.3,1.3,4.2,4.4,4.2,6.7C271.2,66.6,269.3,67.4,267,66.1z"/>
</g>
</svg>
