<?xml version="1.0" encoding="UTF-8"?>
<!DOCTYPE svg PUBLIC "-//W3C//DTD SVG 1.1//EN" "http://www.w3.org/Graphics/SVG/1.1/DTD/svg11.dtd">
<svg xmlns="http://www.w3.org/2000/svg" version="1.1" width="1755px" height="406px" style="shape-rendering:geometricPrecision; text-rendering:geometricPrecision; image-rendering:optimizeQuality; fill-rule:evenodd; clip-rule:evenodd" xmlns:xlink="http://www.w3.org/1999/xlink">
<g><path style="opacity:1" fill="#79051c" d="M 186.5,-0.5 C 191.167,-0.5 195.833,-0.5 200.5,-0.5C 200.5,26.5 200.5,53.5 200.5,80.5C 196.858,81.0804 193.191,81.5804 189.5,82C 190.737,82.2321 191.737,82.7321 192.5,83.5C 186.797,83.3748 181.13,83.7081 175.5,84.5C 175.831,57.6614 175.498,30.9948 174.5,4.5C 178.5,2.83333 182.5,1.16667 186.5,-0.5 Z"/></g>
<g><path style="opacity:1" fill="#80061e" d="M 200.5,-0.5 C 208.167,-0.5 215.833,-0.5 223.5,-0.5C 226.167,0.166667 228.833,0.833333 231.5,1.5C 231.5,27.5 231.5,53.5 231.5,79.5C 235.371,79.185 239.038,79.5184 242.5,80.5C 228.5,80.5 214.5,80.5 200.5,80.5C 200.5,53.5 200.5,26.5 200.5,-0.5 Z"/></g>
<g><path style="opacity:1" fill="#aa0b29" d="M 182.5,-0.5 C 183.833,-0.5 185.167,-0.5 186.5,-0.5C 182.5,1.16667 178.5,2.83333 174.5,4.5C 165.992,7.91448 158.325,12.5811 151.5,18.5C 143.833,24.1667 137.167,30.8333 131.5,38.5C 122.445,49.9353 115.445,62.602 110.5,76.5C 108.971,80.4214 107.637,84.4214 106.5,88.5C 84.305,87.076 62.1383,85.4093 40,83.5C 38.6974,83.9783 37.5307,84.645 36.5,85.5C 39.0745,80.591 42.4078,76.2577 46.5,72.5C 48.5869,71.4154 49.9202,69.7488 50.5,67.5C 51.8333,65.5 53.5,63.8333 55.5,62.5C 58.1667,60.5 60.5,58.1667 62.5,55.5C 87.7608,30.691 117.761,13.8576 152.5,5C 162.58,2.82224 172.58,0.988902 182.5,-0.5 Z"/></g>
<g><path style="opacity:1" fill="#860620" d="M 231.5,1.5 C 242.262,2.44309 252.595,4.77643 262.5,8.5C 260.51,32.1434 259.843,56.1434 260.5,80.5C 254.5,80.5 248.5,80.5 242.5,80.5C 239.038,79.5184 235.371,79.185 231.5,79.5C 231.5,53.5 231.5,27.5 231.5,1.5 Z"/></g>
<g><path style="opacity:1" fill="#74051b" d="M 174.5,4.5 C 175.498,30.9948 175.831,57.6614 175.5,84.5C 167.476,87.3446 159.81,91.0112 152.5,95.5C 152.831,69.6612 152.498,43.9946 151.5,18.5C 158.325,12.5811 165.992,7.91448 174.5,4.5 Z"/></g>
<g><path style="opacity:1" fill="#8c0721" d="M 262.5,8.5 C 271.762,10.4729 280.428,13.8063 288.5,18.5C 287.503,40.327 287.169,62.327 287.5,84.5C 278.393,83.0354 269.393,81.7021 260.5,80.5C 259.843,56.1434 260.51,32.1434 262.5,8.5 Z"/></g>
<g><path style="opacity:1" fill="#6e051a" d="M 151.5,18.5 C 152.498,43.9946 152.831,69.6612 152.5,95.5C 145.561,101.101 138.894,107.101 132.5,113.5C 132.831,88.3278 132.498,63.3278 131.5,38.5C 137.167,30.8333 143.833,24.1667 151.5,18.5 Z"/></g>
<g><path style="opacity:1" fill="#920823" d="M 288.5,18.5 C 298.786,22.3056 308.12,27.639 316.5,34.5C 315.504,34.5858 314.671,34.2524 314,33.5C 313.5,52.4971 313.333,71.4971 313.5,90.5C 306.911,88.5193 300.244,86.8527 293.5,85.5C 291.621,84.6586 289.621,84.3253 287.5,84.5C 287.169,62.327 287.503,40.327 288.5,18.5 Z"/></g>
<g><path style="opacity:1" fill="#990825" d="M 316.5,34.5 C 327.036,41.0316 336.702,48.6983 345.5,57.5C 343.516,72.4636 342.849,87.7969 343.5,103.5C 339.112,100.639 334.446,98.3061 329.5,96.5C 324.39,93.9469 319.057,91.9469 313.5,90.5C 313.333,71.4971 313.5,52.4971 314,33.5C 314.671,34.2524 315.504,34.5858 316.5,34.5 Z"/></g>
<g><path style="opacity:0.982" fill="#0c4a78" d="M 1754.5,41.5 C 1754.5,141.833 1754.5,242.167 1754.5,342.5C 1735.83,342.5 1717.17,342.5 1698.5,342.5C 1698.5,242.167 1698.5,141.833 1698.5,41.5C 1717.17,41.5 1735.83,41.5 1754.5,41.5 Z"/></g>
<g><path style="opacity:1" fill="#670518" d="M 131.5,38.5 C 132.498,63.3278 132.831,88.3278 132.5,113.5C 121.353,130.279 114.353,148.612 111.5,168.5C 111.831,137.662 111.498,106.995 110.5,76.5C 115.445,62.602 122.445,49.9353 131.5,38.5 Z"/></g>
<g><path style="opacity:0.714" fill="#c24e62" d="M 62.5,55.5 C 60.5,58.1667 58.1667,60.5 55.5,62.5C 56.8333,59.1667 59.1667,56.8333 62.5,55.5 Z"/></g>
<g><path style="opacity:0.761" fill="#b5465a" d="M 345.5,57.5 C 347.587,58.5846 348.92,60.2512 349.5,62.5C 347.413,61.4154 346.08,59.7488 345.5,57.5 Z"/></g>
<g><path style="opacity:0.981" fill="#0c4a78" d="M 513.5,63.5 C 514.5,63.5 515.5,63.5 516.5,63.5C 516.5,85.1667 516.5,106.833 516.5,128.5C 534.833,128.5 553.167,128.5 571.5,128.5C 571.5,142.833 571.5,157.167 571.5,171.5C 553.167,171.5 534.833,171.5 516.5,171.5C 516.333,204.168 516.5,236.835 517,269.5C 520.008,291.51 532.508,301.01 554.5,298C 559.541,296.424 564.541,295.091 569.5,294C 575.124,307.035 580.457,320.202 585.5,333.5C 581.706,337.573 577.04,340.406 571.5,342C 547.952,349.618 524.618,348.952 501.5,340C 478.079,329.24 464.579,311.074 461,285.5C 460.167,218.498 460.333,151.498 461.5,84.5C 479.093,77.8646 496.427,70.8646 513.5,63.5 Z"/></g>
<g><path style="opacity:1" fill="#a00927" d="M 345.5,57.5 C 346.08,59.7488 347.413,61.4154 349.5,62.5C 358.01,70.0037 365.01,78.6704 370.5,88.5C 369.505,99.6544 369.172,110.988 369.5,122.5C 364.495,118.004 359.161,114.004 353.5,110.5C 350.554,107.687 347.221,105.354 343.5,103.5C 342.849,87.7969 343.516,72.4636 345.5,57.5 Z"/></g>
<g><path style="opacity:0.773" fill="#be4358" d="M 50.5,67.5 C 49.9202,69.7488 48.5869,71.4154 46.5,72.5C 47.0798,70.2512 48.4131,68.5846 50.5,67.5 Z"/></g>
<g><path style="opacity:1" fill="#630417" d="M 110.5,76.5 C 111.498,106.995 111.831,137.662 111.5,168.5C 109.9,188.961 110.9,209.294 114.5,229.5C 112.801,225.047 111.467,220.38 110.5,215.5C 109.289,208.78 107.956,202.113 106.5,195.5C 105.667,188.006 104.667,180.672 103.5,173.5C 103.647,168.786 103.314,164.119 102.5,159.5C 102.093,153.839 101.76,148.172 101.5,142.5C 101.5,136.167 101.5,129.833 101.5,123.5C 101.472,118.138 101.806,112.805 102.5,107.5C 103.579,101.107 104.912,94.7735 106.5,88.5C 107.637,84.4214 108.971,80.4214 110.5,76.5 Z"/></g>
<g><path style="opacity:0.999" fill="#620416" d="M 200.5,80.5 C 214.5,80.5 228.5,80.5 242.5,80.5C 248.5,80.5 254.5,80.5 260.5,80.5C 269.393,81.7021 278.393,83.0354 287.5,84.5C 289.621,84.3253 291.621,84.6586 293.5,85.5C 267.855,87.9399 242.021,89.9399 216,91.5C 213.116,91.3945 210.282,91.0612 207.5,90.5C 202.918,87.3771 197.918,85.0438 192.5,83.5C 191.737,82.7321 190.737,82.2321 189.5,82C 193.191,81.5804 196.858,81.0804 200.5,80.5 Z"/></g>
<g><path style="opacity:1" fill="#a50827" d="M 106.5,88.5 C 104.912,94.7735 103.579,101.107 102.5,107.5C 77.5625,105.26 52.5625,103.593 27.5,102.5C 27.5,101.5 27.5,100.5 27.5,99.5C 29.7191,94.2909 32.7191,89.6243 36.5,85.5C 37.5307,84.645 38.6974,83.9783 40,83.5C 62.1383,85.4093 84.305,87.076 106.5,88.5 Z"/></g>
<g><path style="opacity:0.981" fill="#0c4a78" d="M 839.5,84.5 C 858.167,84.5 876.833,84.5 895.5,84.5C 895.5,170.5 895.5,256.5 895.5,342.5C 876.833,342.5 858.167,342.5 839.5,342.5C 839.5,256.5 839.5,170.5 839.5,84.5 Z"/></g>
<g><path style="opacity:0.963" fill="#0c4a78" d="M 1587.5,84.5 C 1606.5,84.5 1625.5,84.5 1644.5,84.5C 1644.5,170.5 1644.5,256.5 1644.5,342.5C 1625.5,342.5 1606.5,342.5 1587.5,342.5C 1587.5,256.5 1587.5,170.5 1587.5,84.5 Z"/></g>
<g><path style="opacity:1" fill="#670418" d="M 293.5,85.5 C 300.244,86.8527 306.911,88.5193 313.5,90.5C 319.057,91.9469 324.39,93.9469 329.5,96.5C 328.737,97.2679 327.737,97.7679 326.5,98C 291.185,100.543 255.851,102.71 220.5,104.5C 216.195,99.8594 211.861,95.1927 207.5,90.5C 210.282,91.0612 213.116,91.3945 216,91.5C 242.021,89.9399 267.855,87.9399 293.5,85.5 Z"/></g>
<g><path style="opacity:1" fill="#a7102a" d="M 370.5,88.5 C 388.746,113.887 399.746,142.221 403.5,173.5C 401.779,169.057 399.779,164.724 397.5,160.5C 393.915,152.989 389.582,145.989 384.5,139.5C 380.461,133.798 375.794,128.798 370.5,124.5C 370.167,123.833 369.833,123.167 369.5,122.5C 369.172,110.988 369.505,99.6544 370.5,88.5 Z"/></g>
<g><path style="opacity:1" fill="#6e0519" d="M 329.5,96.5 C 334.446,98.3061 339.112,100.639 343.5,103.5C 347.221,105.354 350.554,107.687 353.5,110.5C 312.151,112.945 270.818,115.612 229.5,118.5C 226.5,113.833 223.5,109.167 220.5,104.5C 255.851,102.71 291.185,100.543 326.5,98C 327.737,97.7679 328.737,97.2679 329.5,96.5 Z"/></g>
<g><path style="opacity:1" fill="#73051b" d="M 353.5,110.5 C 359.161,114.004 364.495,118.004 369.5,122.5C 369.833,123.167 370.167,123.833 370.5,124.5C 326.685,128.311 282.685,131.645 238.5,134.5C 235.515,129.202 232.515,123.868 229.5,118.5C 270.818,115.612 312.151,112.945 353.5,110.5 Z"/></g>
<g><path style="opacity:1" fill="#9e0725" d="M 27.5,99.5 C 27.5,100.5 27.5,101.5 27.5,102.5C 52.5625,103.593 77.5625,105.26 102.5,107.5C 101.806,112.805 101.472,118.138 101.5,123.5C 76.1588,122.023 50.8255,120.357 25.5,118.5C 22.7305,118.471 20.3972,117.805 18.5,116.5C 20.7396,110.35 23.7396,104.684 27.5,99.5 Z"/></g>
<g><path style="opacity:1" fill="#990824" d="M 18.5,116.5 C 20.3972,117.805 22.7305,118.471 25.5,118.5C 50.8255,120.357 76.1588,122.023 101.5,123.5C 101.5,129.833 101.5,136.167 101.5,142.5C 71.1545,140.51 40.8211,138.677 10.5,137C 11.4231,139.041 11.7564,141.208 11.5,143.5C 10.8333,141.833 10.1667,140.167 9.5,138.5C 11.4286,130.654 14.4286,123.321 18.5,116.5 Z"/></g>
<g><path style="opacity:1" fill="#79051c" d="M 370.5,124.5 C 375.794,128.798 380.461,133.798 384.5,139.5C 384.119,140.931 383.119,141.764 381.5,142C 335.799,144.924 290.132,148.091 244.5,151.5C 242.527,145.919 240.527,140.252 238.5,134.5C 282.685,131.645 326.685,128.311 370.5,124.5 Z"/></g>
<g><path style="opacity:0.979" fill="#0c4a78" d="M 690.5,128.5 C 755.964,123.99 792.797,154.324 801,219.5C 801.5,231.162 801.667,242.829 801.5,254.5C 755.167,254.5 708.833,254.5 662.5,254.5C 666.154,275.65 678.154,289.483 698.5,296C 718.452,300.109 738.119,299.109 757.5,293C 767.014,289.073 776.348,284.906 785.5,280.5C 790.338,294.179 795.672,307.679 801.5,321C 774.843,341.92 744.509,350.586 710.5,347C 640.888,343.732 604.555,307.398 601.5,238C 601.051,210.939 608.551,186.439 624,164.5C 641.395,143.719 663.561,131.719 690.5,128.5 Z M 699.5,176.5 C 727.22,175.702 743.22,189.035 747.5,216.5C 719.159,216.833 690.825,216.5 662.5,215.5C 666.419,194.253 678.752,181.253 699.5,176.5 Z"/></g>
<g><path style="opacity:0.979" fill="#0c4a78" d="M 1021.5,128.5 C 1086.15,123.647 1122.98,153.313 1132,217.5C 1133.18,229.806 1133.68,242.139 1133.5,254.5C 1086.83,254.5 1040.17,254.5 993.5,254.5C 997.834,277.668 1011.5,291.835 1034.5,297C 1055.89,300.79 1076.56,298.457 1096.5,290C 1102.83,286.833 1109.17,283.667 1115.5,280.5C 1121.16,293.799 1126.82,307.133 1132.5,320.5C 1119.31,332.265 1103.97,340.098 1086.5,344C 1060.04,348.98 1033.7,348.313 1007.5,342C 963.446,329.278 938.946,300.111 934,254.5C 931.347,230.724 934.347,207.724 943,185.5C 958.634,152.038 984.8,133.038 1021.5,128.5 Z M 1030.5,176.5 C 1048.5,174.872 1062.34,181.539 1072,196.5C 1075.1,202.793 1077.6,209.293 1079.5,216C 1050.83,216.667 1022.17,216.667 993.5,216C 997.194,194.479 1009.53,181.313 1030.5,176.5 Z"/></g>
<g><path style="opacity:0.975" fill="#0c4a78" d="M 1247.5,128.5 C 1277.6,126.609 1305.93,132.775 1332.5,147C 1334.61,147.872 1335.95,149.372 1336.5,151.5C 1331.66,164.878 1326.16,177.878 1320,190.5C 1302.93,182.232 1284.93,177.566 1266,176.5C 1238.79,178.697 1221.46,193.03 1214,219.5C 1209.14,240.631 1212.48,260.298 1224,278.5C 1237.9,295.47 1255.74,301.97 1277.5,298C 1292.44,295.411 1306.77,290.911 1320.5,284.5C 1326.98,298.124 1332.15,312.124 1336,326.5C 1324.3,334.516 1311.46,340.016 1297.5,343C 1264.08,351.325 1232.08,347.658 1201.5,332C 1176.81,316.479 1161.64,294.312 1156,265.5C 1149.05,230.615 1155.05,198.282 1174,168.5C 1193,145.082 1217.5,131.749 1247.5,128.5 Z"/></g>
<g><path style="opacity:0.974" fill="#0c4a78" d="M 1434.5,128.5 C 1463.82,125.243 1490.15,132.41 1513.5,150C 1528.16,162.481 1536.66,178.314 1539,197.5C 1539.5,245.832 1539.67,294.166 1539.5,342.5C 1523.83,342.5 1508.17,342.5 1492.5,342.5C 1492.67,335.492 1492.5,328.492 1492,321.5C 1464.84,348.676 1433.34,354.842 1397.5,340C 1373.64,327.135 1361.97,306.968 1362.5,279.5C 1363.22,247.296 1378.89,226.463 1409.5,217C 1414.1,215.683 1418.77,214.683 1423.5,214C 1443.14,212.653 1462.81,212.153 1482.5,212.5C 1478.81,187.124 1464.14,176.624 1438.5,181C 1421.26,182.933 1404.76,187.433 1389,194.5C 1383.76,179.036 1378.59,163.536 1373.5,148C 1379.33,143.157 1386,139.824 1393.5,138C 1407.14,134.11 1420.8,130.943 1434.5,128.5 Z M 1433.5,251.5 C 1449.83,251.5 1466.17,251.5 1482.5,251.5C 1482.67,261.839 1482.5,272.172 1482,282.5C 1467.19,297.437 1449.36,303.603 1428.5,301C 1410.56,292.517 1406.73,279.684 1417,262.5C 1421.36,256.92 1426.86,253.253 1433.5,251.5 Z"/></g>
<g><path style="opacity:1" fill="#920722" d="M 101.5,142.5 C 101.76,148.172 102.093,153.839 102.5,159.5C 72.8728,157.122 43.2061,155.455 13.5,154.5C 13.5,155.833 13.5,157.167 13.5,158.5C 12.111,153.731 11.4443,148.731 11.5,143.5C 11.7564,141.208 11.4231,139.041 10.5,137C 40.8211,138.677 71.1545,140.51 101.5,142.5 Z"/></g>
<g><path style="opacity:1" fill="#a90b29" d="M 9.5,138.5 C 10.1667,140.167 10.8333,141.833 11.5,143.5C 11.4443,148.731 12.111,153.731 13.5,158.5C 13.6314,162.952 14.298,167.286 15.5,171.5C 16.4078,178.793 18.0745,185.793 20.5,192.5C 21.3945,198.415 23.0611,204.081 25.5,209.5C 27.2621,216.127 29.5955,222.461 32.5,228.5C 33.743,233.25 35.743,237.584 38.5,241.5C 40.4068,246.984 43.0734,251.984 46.5,256.5C 48.4176,261.343 51.0843,265.677 54.5,269.5C 63.5789,284.593 74.5789,298.26 87.5,310.5C 87.44,311.043 87.1067,311.376 86.5,311.5C 65.2425,306.449 43.9092,301.782 22.5,297.5C 10.3747,274.13 2.70807,249.463 -0.5,223.5C -0.5,209.833 -0.5,196.167 -0.5,182.5C 0.722189,173.848 2.38886,165.182 4.5,156.5C 5.92381,154.485 6.59047,152.152 6.5,149.5C 6.89437,145.653 7.89437,141.986 9.5,138.5 Z"/></g>
<g><path style="opacity:1" fill="#80061e" d="M 384.5,139.5 C 389.582,145.989 393.915,152.989 397.5,160.5C 394.645,162.25 391.311,163.083 387.5,163C 341.147,166.012 294.814,169.179 248.5,172.5C 248.768,170.901 248.434,169.568 247.5,168.5C 246.584,162.853 245.584,157.187 244.5,151.5C 290.132,148.091 335.799,144.924 381.5,142C 383.119,141.764 384.119,140.931 384.5,139.5 Z"/></g>
<g><path style="opacity:1" fill="#8c0621" d="M 102.5,159.5 C 103.314,164.119 103.647,168.786 103.5,173.5C 103.657,174.873 103.49,176.207 103,177.5C 73.9324,174.818 44.7658,172.818 15.5,171.5C 14.298,167.286 13.6314,162.952 13.5,158.5C 13.5,157.167 13.5,155.833 13.5,154.5C 43.2061,155.455 72.8728,157.122 102.5,159.5 Z"/></g>
<g><path style="opacity:0.757" fill="#ba3950" d="M 6.5,149.5 C 6.59047,152.152 5.92381,154.485 4.5,156.5C 4.40953,153.848 5.07619,151.515 6.5,149.5 Z"/></g>
<g><path style="opacity:1" fill="#870620" d="M 397.5,160.5 C 399.779,164.724 401.779,169.057 403.5,173.5C 404.946,179.274 405.612,185.274 405.5,191.5C 404.681,188.695 404.181,185.695 404,182.5C 348.513,185.077 293.013,188.743 237.5,193.5C 244.344,186.648 247.677,178.315 247.5,168.5C 248.434,169.568 248.768,170.901 248.5,172.5C 294.814,169.179 341.147,166.012 387.5,163C 391.311,163.083 394.645,162.25 397.5,160.5 Z"/></g>
<g><path style="opacity:1" fill="#86061f" d="M 15.5,171.5 C 44.7658,172.818 73.9324,174.818 103,177.5C 103.49,176.207 103.657,174.873 103.5,173.5C 104.667,180.672 105.667,188.006 106.5,195.5C 77.8333,193.5 49.1667,191.5 20.5,189.5C 20.5,190.5 20.5,191.5 20.5,192.5C 18.0745,185.793 16.4078,178.793 15.5,171.5 Z"/></g>
<g><path style="opacity:1" fill="#8c0621" d="M 405.5,191.5 C 405.5,194.5 405.5,197.5 405.5,200.5C 340.497,204.789 275.497,209.122 210.5,213.5C 213,210.168 216,207.334 219.5,205C 225.698,201.406 231.698,197.572 237.5,193.5C 293.013,188.743 348.513,185.077 404,182.5C 404.181,185.695 404.681,188.695 405.5,191.5 Z"/></g>
<g><path style="opacity:1" fill="#80061e" d="M 106.5,195.5 C 107.956,202.113 109.289,208.78 110.5,215.5C 82.1622,213.547 53.8289,211.547 25.5,209.5C 23.0611,204.081 21.3945,198.415 20.5,192.5C 20.5,191.5 20.5,190.5 20.5,189.5C 49.1667,191.5 77.8333,193.5 106.5,195.5 Z"/></g>
<g><path style="opacity:1" fill="#920723" d="M 405.5,200.5 C 405.804,201.15 406.137,201.817 406.5,202.5C 405.864,209.963 405.198,217.296 404.5,224.5C 404.5,222.5 404.5,220.5 404.5,218.5C 337.844,223.047 271.177,227.547 204.5,232C 203.533,236.401 203.2,240.901 203.5,245.5C 201.394,235.873 202.561,226.539 207,217.5C 207.949,215.907 209.115,214.574 210.5,213.5C 275.497,209.122 340.497,204.789 405.5,200.5 Z"/></g>
<g><path style="opacity:1" fill="#79051c" d="M 25.5,209.5 C 53.8289,211.547 82.1622,213.547 110.5,215.5C 111.467,220.38 112.801,225.047 114.5,229.5C 113.306,230.777 111.64,231.444 109.5,231.5C 86.1737,229.745 62.8403,228.078 39.5,226.5C 36.7305,226.529 34.3972,227.195 32.5,228.5C 29.5955,222.461 27.2621,216.127 25.5,209.5 Z"/></g>
<g><path style="opacity:1" fill="#990724" d="M 404.5,224.5 C 404.453,231.766 403.453,238.766 401.5,245.5C 401.5,243.5 401.5,241.5 401.5,239.5C 336.489,243.701 271.489,248.034 206.5,252.5C 206.5,253.833 206.5,255.167 206.5,256.5C 204.742,253.146 203.742,249.479 203.5,245.5C 203.2,240.901 203.533,236.401 204.5,232C 271.177,227.547 337.844,223.047 404.5,218.5C 404.5,220.5 404.5,222.5 404.5,224.5 Z"/></g>
<g><path style="opacity:1" fill="#74051b" d="M 114.5,229.5 C 117.147,238.067 119.814,246.734 122.5,255.5C 120.689,253.615 119.522,251.281 119,248.5C 118.25,247.874 117.416,247.374 116.5,247C 90.4833,245.277 64.4833,243.443 38.5,241.5C 35.743,237.584 33.743,233.25 32.5,228.5C 34.3972,227.195 36.7305,226.529 39.5,226.5C 62.8403,228.078 86.1737,229.745 109.5,231.5C 111.64,231.444 113.306,230.777 114.5,229.5 Z"/></g>
<g><path style="opacity:1" fill="#6e0519" d="M 38.5,241.5 C 64.4833,243.443 90.4833,245.277 116.5,247C 117.416,247.374 118.25,247.874 119,248.5C 119.522,251.281 120.689,253.615 122.5,255.5C 123.363,257.421 124.029,259.421 124.5,261.5C 100.783,258.862 76.95,256.862 53,255.5C 50.6392,255.504 48.4726,255.837 46.5,256.5C 43.0734,251.984 40.4068,246.984 38.5,241.5 Z"/></g>
<g><path style="opacity:1" fill="#a00826" d="M 401.5,245.5 C 401.039,251.164 399.706,256.497 397.5,261.5C 397.5,260.167 397.5,258.833 397.5,257.5C 336.52,261.776 275.52,265.943 214.5,270C 213.748,270.671 213.414,271.504 213.5,272.5C 210.404,267.563 208.071,262.23 206.5,256.5C 206.5,255.167 206.5,253.833 206.5,252.5C 271.489,248.034 336.489,243.701 401.5,239.5C 401.5,241.5 401.5,243.5 401.5,245.5 Z"/></g>
<g><path style="opacity:1" fill="#670417" d="M 124.5,261.5 C 126.165,265.495 127.832,269.495 129.5,273.5C 105.647,272.141 81.8135,270.475 58,268.5C 56.6153,268.514 55.4486,268.848 54.5,269.5C 51.0843,265.677 48.4176,261.343 46.5,256.5C 48.4726,255.837 50.6392,255.504 53,255.5C 76.95,256.862 100.783,258.862 124.5,261.5 Z"/></g>
<g><path style="opacity:1" fill="#a50927" d="M 397.5,261.5 C 396.131,268.282 393.798,274.615 390.5,280.5C 390.38,279.414 389.713,278.747 388.5,278.5C 334.188,282.488 279.854,286.321 225.5,290C 226.252,290.671 226.586,291.504 226.5,292.5C 221.174,286.524 216.841,279.857 213.5,272.5C 213.414,271.504 213.748,270.671 214.5,270C 275.52,265.943 336.52,261.776 397.5,257.5C 397.5,258.833 397.5,260.167 397.5,261.5 Z"/></g>
<g><path style="opacity:1" fill="#610415" d="M 129.5,273.5 C 149.838,314.299 180.171,345.465 220.5,367C 247.314,380.989 275.314,391.489 304.5,398.5C 257.603,391.026 211.936,379.026 167.5,362.5C 156.557,358.028 145.89,353.028 135.5,347.5C 128.993,343.414 122.66,339.08 116.5,334.5C 111.013,329.924 105.347,325.591 99.5,321.5C 95.5413,317.843 91.5413,314.176 87.5,310.5C 74.5789,298.26 63.5789,284.593 54.5,269.5C 55.4486,268.848 56.6153,268.514 58,268.5C 81.8135,270.475 105.647,272.141 129.5,273.5 Z"/></g>
<g><path style="opacity:1" fill="#aa0b29" d="M 390.5,280.5 C 377.994,311.149 355.328,329.649 322.5,336C 311.073,338.14 299.74,337.974 288.5,335.5C 286.485,334.076 284.152,333.41 281.5,333.5C 268.078,329.295 256.411,322.295 246.5,312.5C 245.415,310.413 243.749,309.08 241.5,308.5C 235.795,303.796 230.795,298.463 226.5,292.5C 226.586,291.504 226.252,290.671 225.5,290C 279.854,286.321 334.188,282.488 388.5,278.5C 389.713,278.747 390.38,279.414 390.5,280.5 Z"/></g>
<g><path style="opacity:1" fill="#a00926" d="M 22.5,297.5 C 43.9092,301.782 65.2425,306.449 86.5,311.5C 87.1067,311.376 87.44,311.043 87.5,310.5C 91.5413,314.176 95.5413,317.843 99.5,321.5C 75.6677,317.065 51.6677,312.065 27.5,306.5C 25.5797,303.661 23.9131,300.661 22.5,297.5 Z"/></g>
<g><path style="opacity:1" fill="#990824" d="M 27.5,306.5 C 51.6677,312.065 75.6677,317.065 99.5,321.5C 105.347,325.591 111.013,329.924 116.5,334.5C 116.265,335.097 115.765,335.43 115,335.5C 88.2081,329.26 61.3748,323.26 34.5,317.5C 31.917,314.003 29.5836,310.336 27.5,306.5 Z"/></g>
<g><path style="opacity:0.898" fill="#bc3e54" d="M 241.5,308.5 C 243.749,309.08 245.415,310.413 246.5,312.5C 244.251,311.92 242.585,310.587 241.5,308.5 Z"/></g>
<g><path style="opacity:1" fill="#920823" d="M 34.5,317.5 C 61.3748,323.26 88.2081,329.26 115,335.5C 115.765,335.43 116.265,335.097 116.5,334.5C 122.66,339.08 128.993,343.414 135.5,347.5C 104.728,341.141 73.7275,334.475 42.5,327.5C 39.3637,324.571 36.697,321.238 34.5,317.5 Z"/></g>
<g><path style="opacity:1" fill="#8c0621" d="M 42.5,327.5 C 73.7275,334.475 104.728,341.141 135.5,347.5C 145.89,353.028 156.557,358.028 167.5,362.5C 167.083,363.124 166.416,363.457 165.5,363.5C 127.551,354.845 89.5508,346.512 51.5,338.5C 47.7847,335.393 44.7847,331.727 42.5,327.5 Z"/></g>
<g><path style="opacity:0.792" fill="#ba394f" d="M 281.5,333.5 C 284.152,333.41 286.485,334.076 288.5,335.5C 285.848,335.59 283.515,334.924 281.5,333.5 Z"/></g>
<g><path style="opacity:1" fill="#860620" d="M 51.5,338.5 C 89.5508,346.512 127.551,354.845 165.5,363.5C 166.416,363.457 167.083,363.124 167.5,362.5C 211.936,379.026 257.603,391.026 304.5,398.5C 308.829,398.793 310.163,400.793 308.5,404.5C 226.504,386.167 144.504,367.834 62.5,349.5C 57.8547,346.855 54.188,343.188 51.5,338.5 Z"/></g>
<g><path style="opacity:1" fill="#80061e" d="M 62.5,349.5 C 144.504,367.834 226.504,386.167 308.5,404.5C 308.5,404.833 308.5,405.167 308.5,405.5C 294.833,405.5 281.167,405.5 267.5,405.5C 206.7,391.37 145.7,377.537 84.5,364C 82.6131,363.22 80.9464,363.387 79.5,364.5C 72.9176,360.587 67.2509,355.587 62.5,349.5 Z"/></g>
<g><path style="opacity:1" fill="#79051d" d="M 267.5,405.5 C 255.833,405.5 244.167,405.5 232.5,405.5C 187.647,395.059 142.647,384.726 97.5,374.5C 96.537,374.97 96.537,375.637 97.5,376.5C 91.1477,372.993 85.1477,368.993 79.5,364.5C 80.9464,363.387 82.6131,363.22 84.5,364C 145.7,377.537 206.7,391.37 267.5,405.5 Z"/></g>
<g><path style="opacity:1" fill="#73061c" d="M 232.5,405.5 C 215.5,405.5 198.5,405.5 181.5,405.5C 151.306,402.213 123.306,392.547 97.5,376.5C 96.537,375.637 96.537,374.97 97.5,374.5C 142.647,384.726 187.647,395.059 232.5,405.5 Z"/></g>
</svg>
